<?xml version="1.0" encoding="UTF-8" standalone="no"?>

<svg
   width="267.89062mm"
   height="188.51562mm"
   viewBox="0 0 267.89062 188.51563"
   version="1.1"
   id="svg5"
   xmlns="http://www.w3.org/2000/svg"
   xmlns:svg="http://www.w3.org/2000/svg">
  <defs
     id="defs2" />
  <g
     id="layer1"
     transform="translate(391.44356,45.6868)">
    <rect
       style="fill:#ffffff;fill-opacity:1;stroke:none;stroke-width:1.32292;stroke-miterlimit:4;stroke-dasharray:none;stroke-dashoffset:0;stroke-opacity:1"
       id="rect1281"
       width="369.9292"
       height="270.43387"
       x="-66.135834"
       y="21.602224" />
    <g
       id="g24838"
       transform="translate(-373.8156,-113.58372)">
      <g
         id="g22353">
        <rect
           style="fill:#363432;fill-opacity:1;stroke:none;stroke-width:0;stroke-miterlimit:4;stroke-dasharray:none;stroke-dashoffset:0;stroke-opacity:1"
           id="rect1407"
           width="264.58334"
           height="185.20833"
           x="-14.320669"
           y="71.204216"
           rx="8.9958334"
           ry="8.9958334" />
        <rect
           style="fill:#faf3e5;fill-opacity:1;stroke:#363432;stroke-width:1.32292;stroke-miterlimit:4;stroke-dasharray:none;stroke-dashoffset:0;stroke-opacity:1"
           id="rect846"
           width="264.58334"
           height="185.20833"
           x="-16.966501"
           y="68.55838"
           rx="7.9375"
           ry="7.9375" />
      </g>
      <g
         id="g24818">
        <rect
           style="fill:#363432;fill-opacity:1;stroke:none;stroke-width:5.43229;stroke-miterlimit:4;stroke-dasharray:none;stroke-dashoffset:0;stroke-opacity:1"
           id="rect1751"
           width="264.58334"
           height="1.3229166"
           x="-16.966501"
           y="83.771919" />
        <g
           aria-label="Tukaan"
           id="text7745"
           style="font-size:7.05556px;line-height:1.25;letter-spacing:0px;word-spacing:0px;fill:#363432;stroke-width:0.264583">
          <path
             d="m 108.67973,74.698471 v 0.93839 h -1.47461 v 3.951114 h -1.10067 v -3.951114 h -1.47461 v -0.93839 z"
             style="font-weight:bold;font-family:Ubuntu;-inkscape-font-specification:'Ubuntu Bold'"
             id="path22422" />
          <path
             d="m 111.99583,79.460974 q -0.26811,0.07761 -0.69144,0.141112 -0.42333,0.07055 -0.889,0.07055 -0.47272,0 -0.79022,-0.127 -0.31045,-0.127 -0.49389,-0.352778 -0.18345,-0.232833 -0.26106,-0.550334 -0.0776,-0.3175 -0.0776,-0.6985 V 75.87675 h 1.05128 v 1.940279 q 0,0.508 0.13405,0.733778 0.13406,0.225778 0.50095,0.225778 0.11289,0 0.23989,-0.0071 0.127,-0.01411 0.22578,-0.02822 V 75.87675 h 1.05127 z"
             style="font-weight:bold;font-family:Ubuntu;-inkscape-font-specification:'Ubuntu Bold'"
             id="path22424" />
          <path
             d="m 114.03488,77.217306 q 0.15523,-0.169333 0.3175,-0.352778 0.16934,-0.183444 0.32456,-0.359833 0.15522,-0.183445 0.28928,-0.345723 0.14111,-0.162278 0.23989,-0.282222 h 1.24883 q -0.37394,0.430389 -0.73378,0.8255 -0.35278,0.388056 -0.77611,0.804334 0.21167,0.1905 0.43745,0.458612 0.22577,0.261055 0.43744,0.543278 0.21167,0.282222 0.38806,0.564445 0.17638,0.282222 0.29633,0.515056 h -1.2065 q -0.11289,-0.183445 -0.26106,-0.402167 -0.14111,-0.225778 -0.30339,-0.444501 -0.16227,-0.225778 -0.34572,-0.430389 -0.17639,-0.204611 -0.35278,-0.345722 v 1.622779 h -1.05128 v -5.305782 l 1.05128,-0.169333 z"
             style="font-weight:bold;font-family:Ubuntu;-inkscape-font-specification:'Ubuntu Bold'"
             id="path22426" />
          <path
             d="m 118.41637,78.854196 q 0.15523,0 0.29634,-0.0071 0.14111,-0.0071 0.22578,-0.02117 v -0.797278 q -0.0635,-0.01411 -0.1905,-0.02822 -0.127,-0.01411 -0.23284,-0.01411 -0.14816,0 -0.28222,0.02117 -0.127,0.01411 -0.22578,0.0635 -0.0988,0.04939 -0.15522,0.134056 -0.0564,0.08467 -0.0564,0.211667 0,0.246944 0.16228,0.345722 0.16934,0.09172 0.45861,0.09172 z m -0.0847,-3.076224 q 0.46566,0 0.77611,0.105833 0.31044,0.105834 0.49389,0.30339 0.1905,0.197555 0.26811,0.479778 0.0776,0.282222 0.0776,0.627945 v 2.187223 q -0.22578,0.04939 -0.62794,0.112889 -0.40217,0.07056 -0.97367,0.07056 -0.35984,0 -0.65617,-0.0635 -0.28928,-0.0635 -0.50094,-0.204612 -0.21167,-0.148166 -0.32456,-0.381 -0.11289,-0.232833 -0.11289,-0.5715 0,-0.324556 0.127,-0.550334 0.13406,-0.225778 0.35278,-0.359833 0.21872,-0.134056 0.50094,-0.190501 0.28223,-0.0635 0.58562,-0.0635 0.20461,0 0.35983,0.02117 0.16228,0.01411 0.26106,0.04233 v -0.09878 q 0,-0.268112 -0.16228,-0.43039 -0.16228,-0.162277 -0.56445,-0.162277 -0.26811,0 -0.52916,0.04233 -0.26106,0.03528 -0.45156,0.105833 l -0.13406,-0.846667 q 0.0917,-0.02822 0.22578,-0.05644 0.14111,-0.03528 0.30339,-0.05645 0.16228,-0.02822 0.33867,-0.04233 0.18344,-0.02117 0.36689,-0.02117 z"
             style="font-weight:bold;font-family:Ubuntu;-inkscape-font-specification:'Ubuntu Bold'"
             id="path22428" />
          <path
             d="m 122.3181,78.854196 q 0.15522,0 0.29633,-0.0071 0.14111,-0.0071 0.22578,-0.02117 v -0.797278 q -0.0635,-0.01411 -0.1905,-0.02822 -0.127,-0.01411 -0.23284,-0.01411 -0.14816,0 -0.28222,0.02117 -0.127,0.01411 -0.22578,0.0635 -0.0988,0.04939 -0.15522,0.134056 -0.0564,0.08467 -0.0564,0.211667 0,0.246944 0.16227,0.345722 0.16934,0.09172 0.45862,0.09172 z m -0.0847,-3.076224 q 0.46567,0 0.77611,0.105833 0.31044,0.105834 0.49389,0.30339 0.1905,0.197555 0.26811,0.479778 0.0776,0.282222 0.0776,0.627945 v 2.187223 q -0.22578,0.04939 -0.62794,0.112889 -0.40217,0.07056 -0.97367,0.07056 -0.35983,0 -0.65617,-0.0635 -0.28928,-0.0635 -0.50094,-0.204612 -0.21167,-0.148166 -0.32456,-0.381 -0.11289,-0.232833 -0.11289,-0.5715 0,-0.324556 0.127,-0.550334 0.13406,-0.225778 0.35278,-0.359833 0.21872,-0.134056 0.50095,-0.190501 0.28222,-0.0635 0.58561,-0.0635 0.20461,0 0.35983,0.02117 0.16228,0.01411 0.26106,0.04233 v -0.09878 q 0,-0.268112 -0.16228,-0.43039 -0.16228,-0.162277 -0.56445,-0.162277 -0.26811,0 -0.52916,0.04233 -0.26106,0.03528 -0.45156,0.105833 l -0.13405,-0.846667 q 0.0917,-0.02822 0.22577,-0.05644 0.14111,-0.03528 0.30339,-0.05645 0.16228,-0.02822 0.33867,-0.04233 0.18344,-0.02117 0.36689,-0.02117 z"
             style="font-weight:bold;font-family:Ubuntu;-inkscape-font-specification:'Ubuntu Bold'"
             id="path22430" />
          <path
             d="m 124.80165,76.00375 q 0.26811,-0.07761 0.69144,-0.141111 0.42334,-0.07056 0.889,-0.07056 0.47273,0 0.78317,0.127 0.3175,0.119945 0.50095,0.345723 0.18344,0.225778 0.26105,0.536222 0.0776,0.310445 0.0776,0.691445 v 2.095502 h -1.05127 v -1.968502 q 0,-0.508 -0.13406,-0.719667 -0.13406,-0.211667 -0.50095,-0.211667 -0.11288,0 -0.23988,0.01411 -0.127,0.0071 -0.22578,0.02117 v 2.864558 h -1.05128 z"
             style="font-weight:bold;font-family:Ubuntu;-inkscape-font-specification:'Ubuntu Bold'"
             id="path22432" />
        </g>
        <g
           id="g21941"
           transform="translate(26.57158,-35.005564)">
          <rect
             style="fill:#363432;fill-opacity:1;stroke:none;stroke-width:1.57664;stroke-miterlimit:4;stroke-dasharray:none;stroke-dashoffset:0;stroke-opacity:1"
             id="rect16400"
             width="7.0461187"
             height="1.3229166"
             x="173.58844"
             y="111.20922"
             rx="0.40263531"
             ry="0.52916664" />
          <g
             id="g16694"
             transform="translate(0.13281316,12.777731)">
            <rect
               style="fill:#363432;fill-opacity:1;stroke:none;stroke-width:1.80748;stroke-miterlimit:4;stroke-dasharray:none;stroke-dashoffset:0;stroke-opacity:1"
               id="rect16686"
               width="9.260417"
               height="1.3229166"
               x="211.49797"
               y="-76.572884"
               rx="0.52916664"
               ry="0.52916664"
               transform="rotate(45)" />
            <rect
               style="fill:#363432;fill-opacity:1;stroke:none;stroke-width:1.80748;stroke-miterlimit:4;stroke-dasharray:none;stroke-dashoffset:0;stroke-opacity:1"
               id="rect16688"
               width="9.260417"
               height="1.3229166"
               x="71.281219"
               y="215.46672"
               rx="0.52916664"
               ry="0.52916664"
               transform="rotate(-45)" />
          </g>
          <rect
             style="fill:none;fill-opacity:1;stroke:#363432;stroke-width:1.32292;stroke-miterlimit:4;stroke-dasharray:none;stroke-dashoffset:0;stroke-opacity:1"
             id="rect21422"
             width="5.7232022"
             height="5.7231989"
             x="189.23352"
             y="109.00908"
             rx="0.85963005"
             ry="0.85962951" />
        </g>
      </g>
    </g>
  </g>
</svg>
